<svg width="3529" height="2304" viewBox="0 0 3529 2304" fill="none" xmlns="http://www.w3.org/2000/svg">
<path d="M213.617 385.763L3210.91 385.763L3210.91 1783.74L213.617 2151.76L213.617 385.763Z" fill="url(#paint0_linear)"/>
<path fill-rule="evenodd" clip-rule="evenodd" d="M2363.18 729.466L584.856 947.818V2303.6L2363.18 2085.25V729.466Z" fill="url(#paint1_linear)" fill-opacity="0.1"/>
<path fill-rule="evenodd" clip-rule="evenodd" d="M2915.08 1324.1L1136.75 1542.45V2048.83L2915.08 1830.48V1324.1Z" fill="url(#paint2_linear)" fill-opacity="0.1"/>
<path fill-rule="evenodd" clip-rule="evenodd" d="M2158.78 1742.2L380.45 1960.55V2145.39L2158.78 1927.04V1742.2Z" fill="url(#paint3_linear)" fill-opacity="0.1"/>
<path fill-rule="evenodd" clip-rule="evenodd" d="M1015.97 281.285L93.2139 399.519L196.993 1281.54L1015.97 1176.61V281.285Z" fill="url(#paint4_radial)" fill-opacity="0.1"/>
<path fill-rule="evenodd" clip-rule="evenodd" d="M2363.18 0L1116.31 153.097V786.834L2363.18 633.737V0Z" fill="url(#paint5_radial)" fill-opacity="0.1"/>
<path fill-rule="evenodd" clip-rule="evenodd" d="M2498.1 1885L2454.24 1602.37V423.727L3304.65 341.118L3528.72 1784.89L2498.1 1885Z" fill="url(#paint6_linear)" fill-opacity="0.1"/>
<defs>
<linearGradient id="paint0_linear" x1="-878.266" y1="1497.17" x2="1008.24" y2="3518.64" gradientUnits="userSpaceOnUse">
<stop stop-color="#3949AB"/>
<stop offset="1" stop-color="#F4511E"/>
<stop offset="1" stop-color="#E85027"/>
</linearGradient>
<linearGradient id="paint1_linear" x1="816.206" y1="352.65" x2="1461.49" y2="1730.43" gradientUnits="userSpaceOnUse">
<stop stop-color="white"/>
<stop offset="1" stop-color="white" stop-opacity="0"/>
</linearGradient>
<linearGradient id="paint2_linear" x1="2025.91" y1="1324.1" x2="2026.2" y2="1774.91" gradientUnits="userSpaceOnUse">
<stop stop-color="white"/>
<stop offset="1" stop-color="white" stop-opacity="0"/>
</linearGradient>
<linearGradient id="paint3_linear" x1="1269.61" y1="1742.2" x2="1269.9" y2="2193.01" gradientUnits="userSpaceOnUse">
<stop stop-color="white"/>
<stop offset="1" stop-color="white" stop-opacity="0"/>
</linearGradient>
<radialGradient id="paint4_radial" cx="0" cy="0" r="1" gradientUnits="userSpaceOnUse" gradientTransform="translate(1015.97 1189.38) rotate(-138.939) scale(1205.13 1057.77)">
<stop stop-color="white"/>
<stop offset="0.676051" stop-color="white" stop-opacity="0"/>
</radialGradient>
<radialGradient id="paint5_radial" cx="0" cy="0" r="1" gradientUnits="userSpaceOnUse" gradientTransform="translate(1116.31 786.966) rotate(-9.63378) scale(1823.56 942.643)">
<stop stop-color="white"/>
<stop offset="1" stop-color="white" stop-opacity="0"/>
</radialGradient>
<linearGradient id="paint6_linear" x1="2956.68" y1="361.027" x2="2957.59" y2="966.224" gradientUnits="userSpaceOnUse">
<stop stop-color="white"/>
<stop offset="1" stop-color="white" stop-opacity="0"/>
</linearGradient>
</defs>
</svg>
