<?xml version="1.0" encoding="iso-8859-1"?>
<svg version="1.1" id="Capa_1" xmlns="http://www.w3.org/2000/svg" xmlns:xlink="http://www.w3.org/1999/xlink" x="0px" y="0px"
	 viewBox="0 0 480 480" style="fill: #4e3c54" xml:space="preserve">
<g>
	<g>
		<path d="M391.999,272h-64v-59.296l67.888-37.712c3.862-2.147,5.252-7.018,3.105-10.879c-0.725-1.304-1.8-2.379-3.105-3.105
			l-67.888-37.712V80h32c22.091,0,40-17.909,40-40s-17.909-40-40-40h-80c-22.091,0-40,17.909-40,40s17.909,40,40,40h32v43.296
			L245.927,160h-37.928v-24c0-4.418-3.582-8-8-8h-112c-4.418,0-8,3.582-8,8v64c0,4.418,3.582,8,8,8h48v32c0,4.418,3.582,8,8,8h168
			v24h-64c-4.418,0-8,3.582-8,8v64c0,4.418,3.582,8,8,8h64v48h-32c-22.091,0-40,17.909-40,40c0,22.091,17.909,40,40,40h80
			c22.091,0,40-17.909,40-40c0-22.091-17.909-40-40-40h-32v-48h64c4.418,0,8-3.582,8-8v-64C399.999,275.582,396.417,272,391.999,272
			z M279.999,64c-13.255,0-24-10.745-24-24s10.745-24,24-24h80c13.255,0,24,10.745,24,24s-10.745,24-24,24H279.999z
			 M319.999,137.152L375.527,168l-55.528,30.848L264.471,168L319.999,137.152z M95.999,192v-48h96v48H95.999z M151.999,232v-24h48
			c4.418,0,8-3.582,8-8v-24h37.928l66.072,36.704V232H151.999z M359.999,416c13.255,0,24,10.745,24,24s-10.745,24-24,24h-80
			c-13.255,0-24-10.745-24-24s10.745-24,24-24H359.999z M383.999,336h-128v-48h128V336z"/>
	</g>
</g>
</svg>
